<?xml version="1.0" encoding="UTF-8" standalone="no"?>
<!-- Created with Inkscape (http://www.inkscape.org/) -->

<svg
   width="140.93576mm"
   height="133.12161mm"
   viewBox="0 0 140.93576 133.12162"
   version="1.1"
   id="svg5"
   inkscape:version="1.2.2 (1:1.2.2+202212051552+b0a8486541)"
   sodipodi:docname="logo_GF1_icon.svg"
   xml:space="preserve"
   xmlns:inkscape="http://www.inkscape.org/namespaces/inkscape"
   xmlns:sodipodi="http://sodipodi.sourceforge.net/DTD/sodipodi-0.dtd"
   xmlns="http://www.w3.org/2000/svg"
   xmlns:svg="http://www.w3.org/2000/svg"><sodipodi:namedview
     id="namedview7"
     pagecolor="#ffffff"
     bordercolor="#000000"
     borderopacity="0.25"
     inkscape:showpageshadow="2"
     inkscape:pageopacity="0.0"
     inkscape:pagecheckerboard="0"
     inkscape:deskcolor="#d1d1d1"
     inkscape:document-units="mm"
     showgrid="false"
     inkscape:zoom="0.61580177"
     inkscape:cx="312.6006"
     inkscape:cy="390.54776"
     inkscape:window-width="1292"
     inkscape:window-height="704"
     inkscape:window-x="0"
     inkscape:window-y="0"
     inkscape:window-maximized="1"
     inkscape:current-layer="layer1"
     inkscape:rotation="90" /><defs
     id="defs2"><inkscape:perspective
       sodipodi:type="inkscape:persp3d"
       inkscape:vp_x="0 : -15.378392 : 1"
       inkscape:vp_y="0 : 1000 : 0"
       inkscape:vp_z="210.00001 : -15.378392 : 1"
       inkscape:persp3d-origin="105 : -64.878393 : 1"
       id="perspective1460" /><inkscape:path-effect
       effect="bspline"
       id="path-effect3977"
       is_visible="true"
       lpeversion="1"
       weight="33.333333"
       steps="2"
       helper_size="0"
       apply_no_weight="true"
       apply_with_weight="true"
       only_selected="false" /><linearGradient
       id="linearGradient1634"
       inkscape:swatch="gradient"><stop
         style="stop-color:#000000;stop-opacity:1;"
         offset="0"
         id="stop1630" /><stop
         style="stop-color:#000000;stop-opacity:0;"
         offset="1"
         id="stop1632" /></linearGradient></defs><g
     inkscape:label="Calque 1"
     inkscape:groupmode="layer"
     id="layer1"
     transform="translate(-25.564225,-122.57809)"><path
       id="path1748"
       style="fill:#00b000;fill-opacity:1;fill-rule:evenodd;stroke:#24a207;stroke-width:2.22055;stroke-dasharray:none;stroke-opacity:1"
       d="m 130.08405,123.12604 c -7.92758,13.97058 -83.572117,35.75714 -94.738827,52.66742 -11.20543,7.27976 -24.20792,61.84388 50.03827,57.13818 61.714187,46.72083 83.694237,-18.47593 79.498097,-37.07189 -1.47221,-23.88657 -35.91168,-58.63848 -34.79754,-72.73371 z"
       sodipodi:nodetypes="ccccc" /><path
       sodipodi:type="spiral"
       style="fill:none;fill-rule:evenodd;stroke:#288113;stroke-width:0.155914;stroke-dasharray:none;stroke-opacity:1;paint-order:markers stroke fill"
       id="path3126"
       sodipodi:cx="50.132523"
       sodipodi:cy="121.81196"
       sodipodi:expansion="1"
       sodipodi:revolution="0.63531572"
       sodipodi:radius="0.90115464"
       sodipodi:argument="-17.396532"
       sodipodi:t0="0"
       d="m 50.132523,121.81196 c 0.02507,0.21187 -0.273237,0.13832 -0.352153,0.0417 -0.213856,-0.26194 0.0063,-0.62685 0.268819,-0.74598 0.218725,-0.0992 0.476141,-0.0768 0.685924,0.0343"
       transform="matrix(4.8882182,-12.830104,13.958817,11.032634,-1853.0172,-451.29969)" /><g
       style="fill:#dd5308;fill-opacity:1"
       id="g5066"
       transform="matrix(0.1770495,0.05585349,-0.07276561,0.15918194,81.806605,141.00417)"><g
         id="g5057"
         style="fill:#dd5308;fill-opacity:1">
	<path
   d="m 264.07,166.541 c 21.39,11.462 62.59,7.953 93.913,-23.377 31.068,-31.062 42.815,-76.485 13.442,-106.828 l 0.023,-0.012 c -0.139,-0.128 -0.639,-0.627 -0.767,-0.761 0,0 0,0.012 -0.023,0.012 -30.324,-29.36 -75.742,-17.62 -106.821,13.443 -31.324,31.33 -34.833,72.53 -23.377,93.919 -2.951,17.515 -26.979,36.518 -48.531,48.851 -16.621,-10.253 -37.581,-28.373 -39.783,-64.803 1.592,-14.552 -3.201,-29.674 -14.337,-40.811 -1.022,-1.022 -3.962,-3.509 -3.962,-3.509 l -81.191,-63.234 -7.396,7.39 88.099,82.649 -9.556,9.556 -85.351,-85.357 -7.837,7.831 85.339,85.362 -8.069,8.069 -85.339,-85.338 -7.14,7.076 84.828,84.834 -9.719,9.754 L 8.092,64 0,72.116 67.376,157.013 c 0,0 1.604,1.644 2.283,2.248 9.806,8.569 22.116,12.612 34.298,12.27 0.087,0 0.215,0.023 0.261,0.035 32.079,0.32 51.901,19.822 64.368,36.646 C 138.082,238.733 43.413,333.413 43.413,333.413 l 0.023,0.023 c -0.093,0.07 -0.215,0.151 -0.308,0.244 -7.709,7.703 -7.709,20.205 0,27.932 0.395,0.383 1.882,1.859 2.26,2.254 7.709,7.715 20.229,7.715 27.926,0.012 0.093,-0.093 0.174,-0.209 0.25,-0.313 l 0.023,0.034 c 0,0 87.913,-87.918 121.619,-121.612 32.079,32.067 120.997,120.962 120.997,120.962 l 0.023,-0.023 c 0.069,0.082 0.104,0.197 0.221,0.314 7.575,7.563 19.938,7.563 27.524,-0.023 7.587,-7.599 7.61,-19.914 0.011,-27.525 -0.115,-0.104 -0.231,-0.139 -0.324,-0.243 l 0.022,-0.023 c 0,0 -98.212,-98.201 -125.458,-125.47 12.304,-20.056 29.709,-40.697 45.848,-43.415 z m -10.434,-58.663 c 0.464,-5.211 1.51,-11.206 3.241,-17.55 0.918,-3.154 1.998,-6.402 3.312,-9.684 1.452,-3.334 2.975,-6.437 5.205,-9.684 4.264,-6.233 9.457,-11.079 14.628,-15.145 5.112,-4.119 10.306,-7.32 14.918,-9.748 4.578,-2.475 8.679,-4.078 11.607,-4.996 2.974,-0.976 4.705,-1.104 4.705,-1.104 0,0 -1.429,1.081 -3.566,3.079 -2.161,2.01 -5.24,4.892 -8.946,8.342 -7.111,6.937 -17.242,15.941 -24.423,25.735 -1.731,2.237 -3.276,5.188 -4.624,7.889 -1.464,2.76 -2.766,5.612 -3.95,8.435 -2.464,5.612 -4.497,11.049 -6.251,15.738 -1.708,4.7 -3.044,8.673 -3.834,11.497 -0.86,2.829 -0.744,4.508 -0.604,4.508 -0.069,0.105 -1.127,-1.522 -1.44,-4.642 -0.385,-3.085 -0.466,-7.471 0.022,-12.67 z"
   id="path5055"
   style="fill:#dd5308;fill-opacity:1" />
</g></g></g></svg>
