<?xml version="1.0" encoding="UTF-8" standalone="no"?>
<!-- Created with Inkscape (http://www.inkscape.org/) -->

<svg
   width="210mm"
   height="297mm"
   viewBox="0 0 210 297"
   version="1.1"
   id="svg5"
   inkscape:version="1.2.2 (1:1.2.2+202212051552+b0a8486541)"
   sodipodi:docname="essai_logoPACT.svg"
   xmlns:inkscape="http://www.inkscape.org/namespaces/inkscape"
   xmlns:sodipodi="http://sodipodi.sourceforge.net/DTD/sodipodi-0.dtd"
   xmlns="http://www.w3.org/2000/svg"
   xmlns:svg="http://www.w3.org/2000/svg">
  <sodipodi:namedview
     id="namedview7"
     pagecolor="#ffffff"
     bordercolor="#000000"
     borderopacity="0.25"
     inkscape:showpageshadow="2"
     inkscape:pageopacity="0.0"
     inkscape:pagecheckerboard="0"
     inkscape:deskcolor="#d1d1d1"
     inkscape:document-units="mm"
     showgrid="false"
     inkscape:zoom="0.96102398"
     inkscape:cx="327.77538"
     inkscape:cy="378.24238"
     inkscape:window-width="1292"
     inkscape:window-height="704"
     inkscape:window-x="0"
     inkscape:window-y="0"
     inkscape:window-maximized="1"
     inkscape:current-layer="layer1" />
  <defs
     id="defs2">
    <inkscape:path-effect
       effect="bspline"
       id="path-effect3977"
       is_visible="true"
       lpeversion="1"
       weight="33.333333"
       steps="2"
       helper_size="0"
       apply_no_weight="true"
       apply_with_weight="true"
       only_selected="false" />
    <linearGradient
       id="linearGradient1634"
       inkscape:swatch="gradient">
      <stop
         style="stop-color:#000000;stop-opacity:1;"
         offset="0"
         id="stop1630" />
      <stop
         style="stop-color:#000000;stop-opacity:0;"
         offset="1"
         id="stop1632" />
    </linearGradient>
  </defs>
  <g
     inkscape:label="Calque 1"
     inkscape:groupmode="layer"
     id="layer1">
    <path
       style="fill:#fafaf4;fill-rule:evenodd;stroke:#000000;stroke-width:5.06674;stroke-dasharray:none;stroke-opacity:0.99"
       id="path229"
       sodipodi:type="arc"
       sodipodi:cx="96.255501"
       sodipodi:cy="50.794964"
       sodipodi:rx="33.390087"
       sodipodi:ry="28.6359"
       sodipodi:start="1.636316"
       sodipodi:end="1.6353735"
       sodipodi:arc-type="arc"
       d="M 94.069358,79.369422 A 33.390087,28.6359 0 0 1 62.936543,48.926824 33.390087,28.6359 0 0 1 98.425942,22.219625 33.390087,28.6359 0 0 1 129.57548,52.649638 33.390087,28.6359 0 0 1 94.100762,79.371176"
       sodipodi:open="true" />
    <path
       style="fill:#fafaf4;fill-rule:evenodd;stroke:#000000;stroke-width:4.75846;stroke-dasharray:none;stroke-opacity:0.99"
       id="path908"
       sodipodi:type="arc"
       sodipodi:cx="-96.43441"
       sodipodi:cy="-126.83468"
       sodipodi:rx="52.945385"
       sodipodi:ry="71.670547"
       sodipodi:start="2.2674276"
       sodipodi:end="0.90868127"
       sodipodi:arc-type="slice"
       d="m -130.40615,-71.862793 a 52.945385,71.670547 0 0 1 -15.63643,-80.014517 52.945385,71.670547 0 0 1 50.521862,-46.61724 52.945385,71.670547 0 0 1 49.303349,48.94957 52.945385,71.670547 0 0 1 -17.666941,79.23641 l -32.5501,-56.52611 z"
       transform="scale(-1)" />
    <path
       style="fill:#20760b;fill-opacity:1;fill-rule:evenodd;stroke:#117d04;stroke-width:2.98564;stroke-dasharray:none;stroke-opacity:0.99"
       d="m 95.169716,92.78916 c -13.783795,19.48091 -14.383293,26.9085 -11.854241,31.47634 6.900183,14.88863 13.318933,18.02323 17.679025,26.72363 3.45738,-5.66525 7.33382,-13.05593 12.8523,-27.20874 -0.96264,-12.76292 -10.12268,-21.73713 -18.677084,-30.99123 z"
       id="path1013"
       sodipodi:nodetypes="ccccc" />
    <path
       style="fill:#0c7c0c;fill-opacity:1;fill-rule:evenodd;stroke:#1b9915;stroke-width:0.880606;stroke-dasharray:none;stroke-opacity:0.99"
       d="m 100.04483,149.79252 c 4.39391,-13.15203 3.2206,-31.43516 -5.189088,-56.388744"
       id="path1546"
       sodipodi:nodetypes="cc" />
    <path
       style="fill:#20760b;fill-opacity:1;fill-rule:evenodd;stroke:#117d04;stroke-width:1.36534;stroke-dasharray:none;stroke-opacity:0.99"
       d="m 94.150071,82.074626 c -8.795083,6.3849 -9.177608,8.819243 -7.563847,10.316186 4.402767,4.879602 8.498395,5.90702 11.280475,8.758378 2.205901,-1.857601 4.679531,-4.27882 8.200751,-8.917346 -0.61438,-4.18307 -6.459027,-7.124072 -11.917379,-10.157218 z"
       id="path1013-3"
       sodipodi:nodetypes="ccccc" />
    <path
       style="fill:#0c7c0c;fill-opacity:1;fill-rule:evenodd;stroke:#1b9915;stroke-width:0.402703;stroke-dasharray:none;stroke-opacity:0.99"
       d="M 97.260736,100.75697 C 100.06438,96.446701 99.315868,90.454595 93.949724,82.276281"
       id="path1546-6"
       sodipodi:nodetypes="cc" />
    <rect
       style="fill:#dd5408;fill-opacity:1;fill-rule:evenodd;stroke:#c64d08;stroke-width:1.18621;stroke-dasharray:none;stroke-opacity:1"
       id="rect2144"
       width="22.382339"
       height="27.091415"
       x="117.19669"
       y="98.308807"
       ry="8.9943953" />
  </g>
</svg>
